<?xml version="1.0" encoding="iso-8859-1"?>
<!-- Generator: Adobe Illustrator 19.0.0, SVG Export Plug-In . SVG Version: 6.00 Build 0)  -->
<svg version="1.1" id="Layer_1" xmlns="http://www.w3.org/2000/svg" xmlns:xlink="http://www.w3.org/1999/xlink" x="0px" y="0px"
	 viewBox="0 0 512 512" style="enable-background:new 0 0 512 512;" xml:space="preserve">
<g>
	<g>
		<path d="M490.841,138.618c-0.925-3.387-2.325-6.499-4.019-9.333c5.148-9.596,6.549-19.468,4.019-28.736
			c-3.407-12.479-13.123-21.363-21.081-25.516c-3.443-1.797-7.065-3.622-10.79-5.441c-1.665-3.988-3.52-7.896-5.551-11.604
			c-11.026-20.135-24.994-31.223-39.331-31.225c-5.366,0-16.35,1.858-27.887,14.61c-24.175-7.079-49.034-12.186-74.057-15.221
			c-1.361-6.755-4.184-12.441-8.473-16.73c-10.137-10.136-27.856-12.172-49.889-5.73c-15.154,4.429-30.582,12.433-41.027,21.098
			c-30.656,2.847-61.029,8.764-90.379,17.604c-20.547-11.886-47.36-9.054-64.909,8.495c-6.661,6.661-11.241,14.739-13.671,23.346
			c-0.519,0.267-1.04,0.528-1.556,0.798c-7.956,4.153-17.672,13.037-21.081,25.516c-2.531,9.267-1.129,19.138,4.019,28.736
			c-1.694,2.835-3.094,5.946-4.019,9.333c-2.794,10.233-0.811,21.204,5.735,31.725c8.794,14.139,86.936,139.724,148.138,238.084
			l51.7,83.089C237.267,508.447,248.463,512,255.999,512c7.537,0,18.733-3.554,29.266-20.484l51.7-83.089
			c61.202-98.36,139.344-223.945,148.137-238.083C491.651,159.821,493.635,148.85,490.841,138.618z M475.582,104.715
			c1.024,3.751,0.882,7.701-0.417,11.804c-1.83-1.354-3.659-2.507-5.405-3.418c-0.702-0.367-1.412-0.723-2.116-1.085
			c0.108-1.387,0.167-2.77,0.167-4.139c0-5.032-0.709-10.716-1.989-16.656C469.534,94.011,473.925,98.648,475.582,104.715z
			 M414.089,42.58c8.053,0.001,17.57,8.601,25.459,23.005c5.055,9.23,8.978,20.026,10.979,29.672
			c-2.541-1.391-5.249-2.531-8.101-3.374c-6.648-14.704-21.278-24.3-37.709-24.3c-4.464,0-8.83,0.713-13.037,2.124
			c-1.259-0.915-2.574-1.733-3.917-2.495C395.7,52.034,405.637,42.58,414.089,42.58z M376.391,55.019
			c-1.281,2.199-2.551,4.569-3.802,7.119c-1.003-0.127-2.014-0.218-3.031-0.271c-2.535-4.296-5.801-8.024-9.58-11.089
			C365.478,52.089,370.952,53.5,376.391,55.019z M312.819,42.177c2.93,0.373,5.859,0.775,8.784,1.206
			c-3.373,1.05-6.56,2.528-9.504,4.357C312.409,45.849,312.654,43.99,312.819,42.177z M333.893,57.34
			c10.297,0,19.552,6.126,23.576,15.606c1.331,3.134,4.51,5.054,7.909,4.794c0.753-0.061,1.425-0.11,2.023-0.11
			c6.493,0,12.698,2.463,17.474,6.937c2.379,2.229,5.881,2.768,8.821,1.361c3.503-1.677,7.211-2.527,11.021-2.527
			c11.108,0,20.884,7.097,24.327,17.661c0.903,2.769,3.255,4.818,6.121,5.334c12.195,2.19,21.046,12.772,21.046,25.164
			c0,14.117-11.485,25.6-25.6,25.6c-11.106,0-20.882-7.099-24.327-17.665c-0.903-2.769-3.254-4.817-6.121-5.333
			c-4.838-0.869-9.305-3.117-12.918-6.502c-1.497-1.404-3.441-2.137-5.41-2.137c-1.159,0-2.325,0.254-3.416,0.776
			c-3.503,1.679-7.21,2.529-11.018,2.529c-10.296,0-19.549-6.127-23.574-15.607c-1.332-3.137-4.534-5.065-7.917-4.793
			c-0.711,0.058-1.4,0.11-2.016,0.11c-14.116,0-25.599-11.485-25.599-25.6C308.293,68.823,319.777,57.34,333.893,57.34z
			 M331.737,124.3c0.235,0.398,0.493,0.777,0.74,1.165c-27.184-1.133-57.917-0.831-86.314,0.945
			c-12.379,0.775-24.008,1.776-34.905,3.004c1.49-1.092,2.917-2.282,4.261-3.576c21.686-1.289,38.932-19.34,38.932-41.344
			c0-2.676-0.265-5.29-0.752-7.826c0.771-0.004,1.542-0.008,2.302-0.008c3.11,0,6.229,0.042,9.35,0.107
			c0.465,0.009,0.929,0.016,1.394,0.026c2.846,0.068,5.693,0.17,8.539,0.291c0.785,0.034,1.569,0.068,2.354,0.104
			c2.638,0.125,5.273,0.276,7.904,0.448c0.997,0.065,1.992,0.137,2.987,0.209c1.412,0.101,2.819,0.221,4.226,0.336
			c-0.179,1.562-0.282,3.148-0.282,4.757C292.475,105.052,309.898,123.174,331.737,124.3z M219.514,39.979
			c8.276-8.276,23.831-16.758,38.706-21.106c15.766-4.606,28.575-3.96,34.267,1.734c6.668,6.67,6.272,23.001-0.73,41.607
			c-2.007-0.154-4.017-0.293-6.029-0.421c-0.101-0.006-0.202-0.013-0.304-0.019c-1.763-0.111-3.528-0.212-5.295-0.303
			c-0.294-0.015-0.588-0.031-0.883-0.044c-1.567-0.078-3.135-0.148-4.703-0.21c-0.428-0.017-0.857-0.035-1.285-0.051
			c-1.44-0.053-2.88-0.098-4.319-0.138c-0.513-0.015-1.025-0.031-1.537-0.044c-1.414-0.035-2.827-0.059-4.239-0.081
			c-0.502-0.007-1.004-0.02-1.505-0.025c-1.888-0.023-3.773-0.037-5.655-0.037c-2.909,0-5.902,0.033-8.934,0.091
			c-6.846-9.857-17.856-16.607-30.464-17.689C217.505,42.11,218.474,41.019,219.514,39.979z M198.523,42.27
			c-0.706,1.381-1.356,2.797-1.942,4.245c-4.497,1.955-8.652,4.699-12.242,8.156c-2.809,0.167-5.574,0.618-8.277,1.349
			c-3.154-3.326-6.824-6.073-10.827-8.177C176.247,45.571,187.355,43.707,198.523,42.27z M121.651,76.662
			c3.413-10.626,13.206-17.766,24.367-17.766c8.322,0,16.158,4.089,20.961,10.939c2.16,3.079,6.188,4.211,9.634,2.709
			c3.213-1.399,6.612-2.116,10.103-2.131l0.062,0.004c0.262,0.019,0.522,0.034,0.786,0.04c2.348,0.051,4.61-0.943,6.154-2.721
			c4.881-5.618,11.921-8.842,19.315-8.842c14.116,0,25.599,11.484,25.599,25.597c0,14.083-11.432,25.547-25.502,25.6l-0.071-0.005
			c-0.256-0.018-0.511-0.032-0.77-0.038c-2.391-0.04-4.611,0.943-6.154,2.72c-4.881,5.619-11.922,8.843-19.315,8.843
			c-8.323,0-16.159-4.089-20.961-10.938c-2.158-3.08-6.185-4.211-9.634-2.71c-3.245,1.413-6.678,2.13-10.208,2.13
			c-0.179,0-0.355-0.018-0.53-0.028c-0.235-0.017-0.469-0.031-0.704-0.042c-3.576-0.177-6.814,2.076-7.908,5.48
			c-3.414,10.626-13.206,17.766-24.365,17.766c-14.116,0-25.6-11.485-25.6-25.6c0-14.114,11.485-25.597,25.6-25.597
			c0.178,0,0.352,0.018,0.527,0.029c0.235,0.016,0.469,0.031,0.705,0.042C117.317,82.301,120.557,80.067,121.651,76.662z
			 M68.653,62.073c12.642-12.642,32.096-14.454,46.704-5.444c-2.626,2.896-4.863,6.179-6.607,9.794
			c-18.149,1.641-32.946,15.042-36.716,32.5c-3.802,1.649-7.583,3.342-11.333,5.088C54.586,89.973,57.508,73.217,68.653,62.073z
			 M36.421,104.715c1.063-3.894,3.255-7.192,5.669-9.797c0.611,5.473,2.071,10.882,4.389,16.027
			c-1.413,0.719-2.839,1.427-4.237,2.156c-1.745,0.911-3.576,2.063-5.405,3.418C35.54,112.415,35.397,108.466,36.421,104.715z
			 M137.702,316.515c0.018,0.714,0.052,1.42,0.094,2.122C90.687,242.926,46.79,172.375,40.329,161.987
			c-4.22-6.784-5.535-13.245-3.908-19.203c2.212-8.102,9.301-13.656,13.141-15.66c7.293-3.807,14.807-7.443,22.427-10.889
			c3.956,18.741,20.62,32.853,40.521,32.853c16.094,0,30.429-9.177,37.267-23.345c2.372-0.214,4.709-0.633,7.002-1.253
			c4.632,4.884,10.366,8.533,16.659,10.693c-36.915,7.386-61.858,18.629-75.526,33.956c-12.427,13.934-15.846,31.286-9.627,48.86
			c15.877,44.866,84.701,37.494,164.475,28.949c27.894-2.988,56.737-6.079,79.396-6.079l0.213,0.001
			c0.058,0.001,0.116,0.002,0.174,0.002c22.305,0.034,30.691,3.152,33.3,4.522c-0.041,0.283-0.099,0.62-0.183,1.019
			c-1.198,5.662-12.03,10.006-29.717,11.918c-19.04,2.058-43.279,1.249-64.69,0.534c-49.069-1.629-95.416-3.168-119.23,20.468
			C142.277,289.006,137.326,301.864,137.702,316.515z M219.3,422.524c-2.904,7.815-3.354,16.065-1.365,24.909l-29.47-47.364
			c-8.413-13.52-17.145-27.555-25.973-41.743c5.253,2.983,11.294,5.349,18.079,7.045c17.783,4.445,39.061,4.154,59.726,3.875
			c10.373-0.136,22.13-0.29,32.308,0.444c11.183,0.807,15.67,2.417,17.318,3.269c0,0.024-0.001,0.051-0.002,0.076
			c-0.15,4.433-3.69,7.549-25.234,15.371C247.847,394.517,226.888,402.122,219.3,422.524z M271.837,483.16
			c-5.225,8.397-10.849,13.022-15.835,13.022c-4.988,0-10.611-4.625-15.835-13.022l-3.988-6.409c3.03,1.425,6.374,2.21,9.831,2.21
			h0.014c3.943,0,7.849-1.021,11.297-2.954c11.128-6.238,15.109-20.367,8.873-31.495c-1.411-2.518-2.195-4.358-2.632-5.602
			c4.225-2.404,13.51-5.775,16.914-7.01c9.644-3.5,22.363-8.123,33.217-16.005L271.837,483.16z M320.358,374.063
			c-0.905,26.864-26.553,36.173-45.281,42.969c-16.981,6.164-24.942,9.952-27.226,16.098c-1.638,4.386-0.109,10.818,4.543,19.116
			c1.973,3.52,0.713,7.99-2.808,9.963c-1.105,0.62-2.305,0.934-3.568,0.934h-0.004c-2.648,0-5.095-1.433-6.389-3.742
			c-6.94-12.385-8.738-22.645-5.497-31.364c5.035-13.542,20.754-19.246,35.956-24.761c18.036-6.548,35.074-12.733,35.646-29.705
			c0.166-4.893-1.012-8.447-3.694-11.172c-8.779-8.962-31.211-9.373-62.04-8.966c-19.565,0.266-39.799,0.542-55.588-3.406
			c-20.05-5.01-30.444-16.421-30.893-33.916c-0.262-10.189,3.076-19.024,9.65-25.551c18.968-18.824,62.003-17.395,107.585-15.884
			c21.909,0.731,46.742,1.561,66.892-0.618c9.703-1.048,39.234-4.24,43.492-24.366c1.326-6.26,0.478-10.944-2.575-14.3
			c-6.149-6.814-21.599-10.291-45.921-10.334c-0.16-0.002-0.323-0.003-0.481-0.003c-23.504,0-52.775,3.136-81.163,6.177
			c-73.023,7.82-136.087,14.577-147.797-18.508c-4.267-12.058-2.013-23.488,6.52-33.055c22.538-25.273,87.178-34.327,137.434-37.472
			c36.283-2.269,76.401-2.091,107.585,0.458c4.025,1.29,8.284,1.992,12.666,1.992c1.431,0,2.851-0.081,4.261-0.228
			c5.061,0.672,9.287,1.39,12.556,2.142c1.905,0.438,3.525,1.59,4.563,3.246c1.037,1.656,1.368,3.618,0.93,5.523
			c-0.438,1.906-1.591,3.527-3.248,4.565c-1.656,1.038-3.617,1.369-5.523,0.93c-9.65-2.217-28.83-4.071-51.307-4.965
			c-18.543-0.736-47.749-1.167-81.568,0.948c-94.004,5.88-120.428,24.756-127.426,32.601c-4.966,5.569-6.125,11.427-3.645,18.428
			c3.214,9.098,17.578,14.124,42.693,14.941c25.176,0.813,58.004-2.701,89.755-6.104c61.868-6.625,120.303-12.885,139.98,8.903
			c6.331,7.013,8.362,16.148,6.033,27.146c-3.965,18.728-19.38,30.077-47.125,34.694c-22.457,3.74-50.726,2.796-78.084,1.885
			c-48.178-1.6-83.322-1.698-96.769,11.646c-3.798,3.769-5.492,8.468-5.329,14.786c0.253,9.881,5.992,16.251,17.542,19.476
			c10.172,2.839,26.861,3.936,54.141,3.585c30.244-0.4,58.812-0.775,72.661,13.358C316.287,356.027,320.733,362.972,320.358,374.063
			z M335.646,380.611c0.265-1.933,0.451-3.928,0.522-6.013c0.564-16.685-6.421-27.436-12.379-33.514
			c-18.587-18.969-50.44-18.548-84.194-18.103c-25.332,0.328-41.112-0.62-49.651-3.005c-5.906-1.648-5.94-2.972-5.982-4.647
			c-0.063-2.436,0.388-2.883,0.658-3.152c9.642-9.569,56.882-8.002,85.121-7.064c28.113,0.938,57.181,1.907,81.189-2.091
			c22.514-3.748,36.896-11.699,46.025-20.938C377.247,313.751,355.865,348.115,335.646,380.611z M471.674,161.988
			c-4.811,7.733-30.369,48.811-62.554,100.537c0.767-2.223,1.36-4.411,1.808-6.527c4.281-20.222-2.948-33.469-9.768-41.022
			c-25.082-27.777-84.549-21.405-153.414-14.03c-31.204,3.345-63.472,6.799-87.546,6.021c-20.755-0.675-27.147-4.243-28.558-5.261
			c-0.075-0.295-0.097-0.474-0.104-0.559c0.068-0.136,0.29-0.522,0.906-1.211c1.343-1.506,7.067-6.865,24.352-12.632
			c21.876-7.3,52.915-12.249,92.258-14.71c57.665-3.611,111.59-0.203,128.344,3.645c6.025,1.386,12.229,0.34,17.466-2.943
			c3.967-2.487,7.015-6.033,8.863-10.224c7.313,6.247,16.753,9.906,26.883,9.906c21.569,0,39.332-16.577,41.238-37.657
			c1.603,2.156,2.964,4.654,3.732,7.465C477.209,148.744,475.895,155.205,471.674,161.988z"/>
	</g>
</g>
<g>
</g>
<g>
</g>
<g>
</g>
<g>
</g>
<g>
</g>
<g>
</g>
<g>
</g>
<g>
</g>
<g>
</g>
<g>
</g>
<g>
</g>
<g>
</g>
<g>
</g>
<g>
</g>
<g>
</g>
</svg>
